<svg width="232.025px" height="121.39999999999999px" xmlns="http://www.w3.org/2000/svg" viewBox="133.9875 14.300000000000004 232.025 121.39999999999999" style="background: none;" preserveAspectRatio="xMidYMid"><defs><filter id="editing-hover" x="-100%" y="-100%" width="300%" height="300%"><feFlood flood-color="#95d5ee" result="flood"></feFlood><feComposite operator="in" in2="SourceAlpha" in="flood" result="shadow"></feComposite><feOffset dx="-4" dy="-4" in="SourceGraphic" result="offset-1"></feOffset><feOffset dx="4" dy="4" in="shadow" result="offset-2"></feOffset><feMerge><feMergeNode in="offset-2"></feMergeNode><feMergeNode in="offset-1"></feMergeNode></feMerge></filter></defs><g filter="url(#editing-hover)"><g transform="translate(172.0800061225891, 99)"><path d="M3.87-1.92L3.87-1.92L3.87-1.92Q2.37-3.58 1.70-6.21L1.70-6.21L1.70-6.21Q1.02-8.83 1.02-13.12L1.02-13.12L1.02-13.12Q1.02-17.41 2.50-21.31L2.50-21.31L2.50-21.31Q3.97-25.22 6.66-28.03L6.66-28.03L6.66-28.03Q12.16-33.92 21.25-33.92L21.25-33.92L21.25-33.92Q24.51-33.92 26.88-32.83L26.88-32.83L37.82-33.92L33.09-8.96L33.09-8.96Q32.90-8.19 32.90-6.78L32.90-6.78L32.90-6.78Q32.90-5.38 33.76-4.48L33.76-4.48L33.76-4.48Q34.62-3.58 35.90-3.46L35.90-3.46L35.90-3.46Q35.26-1.28 32.93 0L32.93 0L32.93 0Q30.59 1.28 27.97 1.28L27.97 1.28L27.97 1.28Q25.34 1.28 23.58 0.29L23.58 0.29L23.58 0.29Q21.82-0.70 21.31-2.37L21.31-2.37L21.31-2.37Q20.29-0.77 18.11 0.26L18.11 0.26L18.11 0.26Q15.94 1.28 13.02 1.28L13.02 1.28L13.02 1.28Q10.11 1.28 7.74 0.51L7.74 0.51L7.74 0.51Q5.38-0.26 3.87-1.92ZM17.38-27.90L17.38-27.90L17.38-27.90Q16.64-26.75 16-24.80L16-24.80L16-24.80Q15.36-22.85 14.30-17.63L14.30-17.63L14.30-17.63Q13.25-12.42 13.25-8.70L13.25-8.70L13.25-8.70Q13.25-4.99 13.82-3.90L13.82-3.90L13.82-3.90Q14.40-2.82 15.42-2.82L15.42-2.82L15.42-2.82Q17.47-2.82 18.98-4.77L18.98-4.77L18.98-4.77Q20.48-6.72 21.06-10.18L21.06-10.18L24.45-28.93L24.45-28.93Q23.10-30.08 21.54-30.08L21.54-30.08L21.54-30.08Q19.97-30.08 19.04-29.57L19.04-29.57L19.04-29.57Q18.11-29.06 17.38-27.90ZM56.58-3.52L56.58-3.52L56.58-3.52Q54.59 1.28 48.26 1.28L48.26 1.28L48.26 1.28Q45.06 1.28 43.01-0.96L43.01-0.96L43.01-0.96Q41.34-2.82 41.34-4.93L41.34-4.93L41.34-4.93Q41.34-9.73 43.58-20.22L43.58-20.22L48.26-44.80L61.25-46.08L55.04-13.70L55.04-13.70Q53.95-8.96 53.95-7.30L53.95-7.30L53.95-7.30Q53.95-3.65 56.58-3.52ZM77.38-3.52L77.38-3.52L77.38-3.52Q75.39 1.28 69.06 1.28L69.06 1.28L69.06 1.28Q65.79 1.28 63.74-0.96L63.74-0.96L63.74-0.96Q62.02-2.94 62.02-4.93L62.02-4.93L62.02-4.93Q62.02-10.11 64.38-20.22L64.38-20.22L66.75-32.64L79.74-33.92L75.84-13.70L75.84-13.70Q74.75-8.96 74.75-7.30L74.75-7.30L74.75-7.30Q74.75-3.65 77.38-3.52ZM67.90-41.54L67.90-41.54L67.90-41.54Q67.90-44.03 69.98-45.38L69.98-45.38L69.98-45.38Q72.06-46.72 75.07-46.72L75.07-46.72L75.07-46.72Q78.08-46.72 79.90-45.38L79.90-45.38L79.90-45.38Q81.73-44.03 81.73-41.54L81.73-41.54L81.73-41.54Q81.73-39.04 79.71-37.76L79.71-37.76L79.71-37.76Q77.70-36.48 74.69-36.48L74.69-36.48L74.69-36.48Q71.68-36.48 69.79-37.76L69.79-37.76L69.79-37.76Q67.90-39.04 67.90-41.54ZM109.89 1.28L109.89 1.28L109.89 1.28Q102.14 1.28 102.14-4.74L102.14-4.74L102.14-4.74Q102.21-6.40 102.72-9.22L102.72-9.22L103.87-15.10L103.87-15.10Q105.60-23.42 105.60-25.28L105.60-25.28L105.60-25.28Q105.60-28.99 103.42-28.99L103.42-28.99L103.42-28.99Q99.78-28.99 97.86-19.46L97.86-19.46L94.08 0L81.22 1.28L87.87-32.70L98.37-33.92L97.34-27.65L97.34-27.65Q100.35-33.92 109.57-33.92L109.57-33.92L109.57-33.92Q114.05-33.92 115.94-32.03L115.94-32.03L115.94-32.03Q117.82-30.14 117.82-25.92L117.82-25.92L117.82-25.92Q117.82-21.95 115.78-12.67L115.78-12.67L115.78-12.67Q114.82-8.51 114.82-6.94L114.82-6.94L114.82-6.94Q114.82-5.38 115.68-4.48L115.68-4.48L115.68-4.48Q116.54-3.58 117.82-3.46L117.82-3.46L117.82-3.46Q117.18-1.28 114.98 0L114.98 0L114.98 0Q112.77 1.28 109.89 1.28ZM148.86-10.82L148.86-10.82L148.86-10.82Q150.46-9.73 150.46-7.33L150.46-7.33L150.46-7.33Q150.46-4.93 149.25-3.39L149.25-3.39L149.25-3.39Q148.03-1.86 146.05-0.83L146.05-0.83L146.05-0.83Q141.95 1.28 137.54 1.28L137.54 1.28L137.54 1.28Q133.12 1.28 130.53 0.32L130.53 0.32L130.53 0.32Q127.94-0.64 126.21-2.43L126.21-2.43L126.21-2.43Q122.82-5.82 122.82-12.03L122.82-12.03L122.82-12.03Q122.82-21.70 128.06-27.58L128.06-27.58L128.06-27.58Q133.70-33.92 143.49-33.92L143.49-33.92L143.49-33.92Q149.57-33.92 152.58-31.36L152.58-31.36L152.58-31.36Q154.82-29.44 154.82-26.30L154.82-26.30L154.82-26.30Q154.82-15.04 135.36-15.04L135.36-15.04L135.36-15.04Q135.10-13.38 135.10-11.97L135.10-11.97L135.10-11.97Q135.10-9.02 136.42-7.90L136.42-7.90L136.42-7.90Q137.73-6.78 140.16-6.78L140.16-6.78L140.16-6.78Q142.59-6.78 145.18-7.90L145.18-7.90L145.18-7.90Q147.78-9.02 148.86-10.82ZM135.81-17.79L135.81-17.79L135.81-17.79Q140.35-17.79 142.98-20.61L142.98-20.61L142.98-20.61Q145.60-23.30 145.60-27.58L145.60-27.58L145.60-27.58Q145.60-29.06 145.06-29.86L145.06-29.86L145.06-29.86Q144.51-30.66 143.42-30.66L143.42-30.66L143.42-30.66Q142.34-30.66 141.41-30.24L141.41-30.24L141.41-30.24Q140.48-29.82 139.52-28.42L139.52-28.42L139.52-28.42Q137.15-25.22 135.81-17.79Z" fill="#ffb6bb"></path></g></g><style>text {
  font-size: 64px;
  font-family: Arial Black;
  dominant-baseline: central;
  text-anchor: middle;
}</style></svg>